# xmcd
#
# Track frame offsets: 
#        150
#        16002
#        27110
#        45652
#        55757
#        67542
#        80202
#        92260
#        105812
#        120497
#        131785
#        144685
#
# Disc length: 2078 seconds
#
# Revision: 0
# Processed by: cddbd v1.5.1PL0 Copyright (c) Steve Scherf et al.
# Submitted via: ExactAudioCopy v0.95a5
#
DISCID=89081c0c
DTITLE=The Southern Gentlemem - You And Me
DYEAR=2004
DGENRE=Bluegrass
TTITLE0=You and Me
TTITLE1=Sweet Blue-Eyed Darlin
TTITLE2=Virginia
TTITLE3=I'll Go Steppin' Too
TTITLE4=Send Me The Pillow
TTITLE5=Father's Table Grace
TTITLE6=Close By
TTITLE7=I'll Break Out Tonight
TTITLE8=Nickels And Dimes
TTITLE9=Is Your Heart Right With God
TTITLE10=I'd Rather Be Alone
TTITLE11=This Morning At Nine
EXTD=
EXTT0=
EXTT1=
EXTT2=
EXTT3=
EXTT4=
EXTT5=
EXTT6=
EXTT7=
EXTT8=
EXTT9=
EXTT10=
EXTT11=
PLAYORDER=
